<svg width="161" height="32" viewBox="0 0 161 32" fill="none" xmlns="http://www.w3.org/2000/svg">
<rect width="161" height="32" rx="16" fill="#BC3232" fill-opacity="0.8"/>
<rect x="0.5" y="0.5" width="160" height="31" rx="15.5" stroke="#BC3232" stroke-opacity="0.9"/>
<path d="M25 10H26V18H25V10ZM16 14V12H17V14H16ZM18 20H26V21H17V17H18V20ZM18 16V15H21V16H18ZM18 14V15H17V14H18ZM18 11V12H17V11H18ZM18 10H21V11H18V10ZM22 14V15H21V14H22ZM22 11V12H21V11H22ZM22 12H23V14H22V12ZM28 16V15H39V16H28ZM37 20V21H30V20H37ZM37 17V18H30V17H37ZM37 18H38V20H37V18ZM30 20H29V18H30V20ZM34 11V12H33V11H29V10H38V11H34ZM34 12H36V13H34V12ZM36 14V13H38V14H36ZM29 14V13H31V14H29ZM31 13V12H33V13H31ZM49 10V11H42V10H49ZM40 15V14H51V15H40ZM49 18V17H41V16H50V19H42V20H50V21H41V18H49ZM49 11H50V12H49V11ZM49 12V13H42V12H49ZM42 11V12H41V11H42ZM66.0039 10H67.0039V15H66.0039V10ZM57.0039 15V14H58.0039V15H57.0039ZM66.0039 18V17H58.0039V16H67.0039V19H59.0039V20H67.0039V21H58.0039V18H66.0039ZM59.0039 14H58.0039V13H59.0039V14ZM59.0039 13V12H60.0039V13H59.0039ZM61.0039 12H62.0039V13H61.0039V12ZM61.0039 10V12H60.0039V10H61.0039ZM63.0039 14H62.0039V13H63.0039V14ZM63.0039 15V14H64.0039V15H63.0039ZM69.0039 20V19H70.0039V11H69.0039V10H75.0039V11H74.0039V19H75.0039V20H69.0039ZM78.0039 10H79.0039V21H78.0039V16H77.0039V21H76.0039V10H77.0039V15H78.0039V10ZM71.0039 19H73.0039V11H71.0039V19ZM90.0039 10H91.0039V15H92.0039V16H91.0039V21H90.0039V10ZM81.0039 13V12H89.0039V13H81.0039ZM83.0039 19H82.0039V15H83.0039V19ZM83.0039 20V19H87.0039V20H83.0039ZM83.0039 15V14H87.0039V15H83.0039ZM83.0039 11V10H87.0039V11H83.0039ZM87.0039 19V15H88.0039V19H87.0039ZM102.004 10H103.004V17H102.004V14H99.0039V12H100.004V13H102.004V12H100.004V11H102.004V10ZM93.0039 14V12H94.0039V14H93.0039ZM102.004 19V20H101.004V19H102.004ZM102.004 20H103.004V21H102.004V20ZM97.0039 19H98.0039V20H97.0039V19ZM97.0039 17V19H96.0039V17H97.0039ZM101.004 19H100.004V17H101.004V19ZM96.0039 19V20H95.0039V19H96.0039ZM100.004 19V20H99.0039V19H100.004ZM95.0039 20V21H94.0039V20H95.0039ZM95.0039 16V15H98.0039V16H95.0039ZM95.0039 14V15H94.0039V14H95.0039ZM95.0039 11V12H94.0039V11H95.0039ZM95.0039 10H98.0039V11H95.0039V10ZM99.0039 20V21H98.0039V20H99.0039ZM99.0039 14V15H98.0039V14H99.0039ZM99.0039 11V12H98.0039V11H99.0039ZM105.004 16V15H116.004V16H105.004ZM114.004 20V19H107.004V20H114.004ZM114.004 18V17H115.004V21H106.004V17H107.004V18H114.004ZM111.004 12H113.004V13H111.004V12ZM111.004 10V12H110.004V10H111.004ZM113.004 14V13H115.004V14H113.004ZM106.004 14V13H108.004V14H106.004ZM108.004 13V12H110.004V13H108.004ZM126.004 10H127.004V21H126.004V10ZM117.004 20V10H118.004V19H124.004V20H117.004ZM138.004 10H139.004V15H140.004V16H139.004V21H138.004V10ZM129.004 20V10H136.004V11H130.004V19H136.004V20H129.004ZM142.004 21V20H143.004V21H142.004Z" fill="white"/>
</svg>
