<svg width="161" height="32" viewBox="0 0 161 32" fill="none" xmlns="http://www.w3.org/2000/svg">
<rect width="161" height="32" rx="16" fill="#6A7621" fill-opacity="0.8"/>
<rect x="0.5" y="0.5" width="160" height="31" rx="15.5" stroke="#6A7621" stroke-opacity="0.9"/>
<path d="M25 10H26V18H25V10ZM16 14V12H17V14H16ZM18 20H26V21H17V17H18V20ZM18 16V15H21V16H18ZM18 14V15H17V14H18ZM18 11V12H17V11H18ZM18 10H21V11H18V10ZM22 14V15H21V14H22ZM22 11V12H21V11H22ZM22 12H23V14H22V12ZM28 16V15H39V16H28ZM37 20V21H30V20H37ZM37 17V18H30V17H37ZM37 18H38V20H37V18ZM30 20H29V18H30V20ZM34 11V12H33V11H29V10H38V11H34ZM34 12H36V13H34V12ZM36 14V13H38V14H36ZM29 14V13H31V14H29ZM31 13V12H33V13H31ZM49 10H50V21H49V10ZM40 18V12H41V18H40ZM42 19H41V18H42V19ZM42 20V19H45V20H42ZM42 11V12H41V11H42ZM42 10H45V11H42V10ZM46 19H45V18H46V19ZM46 18V12H47V18H46ZM46 11V12H45V11H46ZM66.0039 10H67.0039V13H68.0039V14H67.0039V18H66.0039V10ZM57.0039 16V15H61.0039V14H59.0039V13H63.0039V14H62.0039V15H65.0039V16H57.0039ZM59.0039 20H67.0039V21H58.0039V17H59.0039V20ZM59.0039 11V13H58.0039V11H59.0039ZM59.0039 10H63.0039V11H59.0039V10ZM63.0039 11H64.0039V13H63.0039V11ZM69.0039 20V19H72.0039V17H70.0039V13H78.0039V11H70.0039V10H79.0039V14H71.0039V16H79.0039V17H77.0039V19H80.0039V20H69.0039ZM73.0039 19H76.0039V17H73.0039V19ZM90.0039 10H91.0039V21H90.0039V10ZM81.0039 20V19H84.0039V16H81.0039V10H88.0039V11H82.0039V15H88.0039V16H85.0039V19H89.0039V20H81.0039ZM102.004 10H103.004V17H102.004V13H100.004V14H99.0039V12H102.004V10ZM93.0039 14V12H94.0039V14H93.0039ZM102.004 19V20H101.004V19H102.004ZM102.004 20H103.004V21H102.004V20ZM97.0039 19H98.0039V20H97.0039V19ZM97.0039 17V19H96.0039V17H97.0039ZM101.004 19H100.004V17H101.004V19ZM96.0039 19V20H95.0039V19H96.0039ZM100.004 19V20H99.0039V19H100.004ZM95.0039 20V21H94.0039V20H95.0039ZM95.0039 16V15H98.0039V16H95.0039ZM95.0039 14V15H94.0039V14H95.0039ZM95.0039 11V12H94.0039V11H95.0039ZM95.0039 10H98.0039V11H95.0039V10ZM99.0039 20V21H98.0039V20H99.0039ZM99.0039 14V15H98.0039V14H99.0039ZM99.0039 11V12H98.0039V11H99.0039ZM105.004 16V15H116.004V16H105.004ZM114.004 20V19H107.004V20H114.004ZM114.004 18V17H115.004V21H106.004V17H107.004V18H114.004ZM111.004 12H113.004V13H111.004V12ZM111.004 10V12H110.004V10H111.004ZM113.004 14V13H115.004V14H113.004ZM106.004 14V13H108.004V14H106.004ZM108.004 13V12H110.004V13H108.004ZM126.004 10H127.004V21H126.004V10ZM117.004 20V10H118.004V19H124.004V20H117.004ZM138.004 10H139.004V15H140.004V16H139.004V21H138.004V10ZM129.004 20V10H136.004V11H130.004V19H136.004V20H129.004ZM142.004 10H143.004V18H142.004V10ZM142.004 19H143.004V21H142.004V19Z" fill="white"/>
</svg>
